<svg width="782" height="145" viewBox="0 0 782 145" fill="none" xmlns="http://www.w3.org/2000/svg">
<path d="M81.4 60.16C81.24 60.32 81.4 60.64 81.72 60.8C85.08 61.92 88.6 62.56 92.28 62.72C90.04 65.6 87 67.68 83.48 68.96H83.16V69.44C83 73.6 82.36 77.12 81.24 80.16C80.28 82.88 78.84 85.44 77.08 87.52C76.12 85.12 73.4 78.4 72.28 75.84C72.12 75.68 71.8 75.52 71.48 75.68C71.32 75.84 71.16 76.16 71.32 76.32C72.76 79.2 76.28 87.84 76.44 88.64C78.84 96.64 77.56 105.92 72.76 112.64C67.48 120.16 58.04 124.64 48.92 124.16C43.8 123.84 39.64 121.92 37.4 118.72C35.8 116.32 35.16 112.96 35.48 108.32C35.8 102.56 37.4 96.8 39.8 91.52C40.44 93.6 41.24 95.52 42.2 97.44C42.36 97.6 42.52 97.76 42.68 97.76L42.84 97.6C43.16 97.44 43.16 97.28 43.16 96.96C42.04 94.88 41.08 92.48 40.44 90.08C38.04 80.64 39.8 70.24 44.92 62.08L45.4 61.44L44.76 61.28C43.32 60.96 42.04 60.48 40.76 59.84C42.36 58.56 43.96 57.28 45.4 55.84C45.72 55.68 45.72 55.36 45.4 55.04C45.24 54.88 44.92 54.88 44.76 55.04C43 56.8 41.24 58.24 39.48 59.36C35.8 62.08 31.96 63.84 28.12 64.8C21.4 66.4 14.52 65.44 9.4 62.08C3.8 58.4 0.6 51.68 1.4 45.6C1.88 41.28 4.28 36.96 8.6 32.8C15.64 25.92 25.4 21.6 35.48 20.96C38.84 20.8 42.36 20.96 45.56 21.6H45.72C45.88 21.6 46.2 21.44 46.2 21.28C46.2 20.96 46.04 20.64 45.72 20.64C43.16 20.16 40.44 19.84 37.72 19.84C44.6 16.8 52.44 13.6 60.76 12.48C71 11.04 80.92 13.12 87.8 18.4C89.56 19.52 91 20.96 92.28 22.56C92.44 22.56 92.44 22.72 92.6 22.72C92.76 22.72 92.92 22.72 92.92 22.56C93.24 22.4 93.24 22.08 93.08 21.92C91.96 20.48 90.68 19.36 89.24 18.24C98.68 16 109.08 17.6 117.4 22.56C121.72 25.28 124.92 28.48 127 32.16C129.24 36.48 129.72 41.28 128.12 45.28C126.84 48.8 123.96 52 119.48 54.88C111.96 59.84 102.52 62.24 93.24 61.92C89.4 61.6 85.56 60.96 82.04 59.84C81.72 59.68 81.4 59.84 81.4 60.16ZM186.72 49.28C186.72 48.96 186.4 48.8 186.08 48.8C182.4 49.28 178.72 49.76 175.04 50.72C175.2 42.72 177.6 34.88 181.92 28.32C187.04 20.48 194.72 14.72 203.52 11.68C208.48 10.08 212.32 10.24 215.04 12.16C216.96 13.44 218.4 15.68 219.04 18.4C220.64 25.28 217.44 32.32 214.56 36.8C212.8 39.36 210.88 41.92 209.12 44.16C206.88 47.04 204.64 49.92 202.72 52.96C202.56 53.28 202.72 53.6 203.04 53.76H203.2C203.36 53.76 203.68 53.76 203.68 53.6C205.6 50.56 207.84 47.68 209.92 44.96C209.92 44.8 210.08 44.8 210.08 44.64C212.8 51.52 212 60 207.68 68.16C206.08 71.2 204 74.08 201.76 76.8C201.76 76.96 201.6 76.96 201.6 76.96C198.72 80.64 195.2 84 192 87.36C191.68 87.68 191.68 88 192 88.16C192 88.32 192.16 88.32 192.32 88.32C192.48 88.32 192.64 88.32 192.8 88.16C196 84.96 199.2 81.6 202.24 78.08C206.72 82.24 208.64 89.44 207.04 96.32C205.6 102.4 201.76 108.16 195.68 113.6C191.2 117.6 187.52 119.36 183.84 119.36C179.04 119.36 174.24 115.84 172 110.72C170.08 106.72 169.6 101.6 170.4 95.36C171.2 87.36 174.24 78.08 178.4 70.72C180.96 69.76 183.68 68.8 186.4 68C186.56 67.84 186.72 67.52 186.72 67.36C186.56 67.04 186.24 66.88 185.92 66.88C169.44 72.32 153.44 79.52 138.4 88.48C138.24 88.64 138.08 88.96 138.24 89.28C138.4 89.44 138.56 89.6 138.72 89.6C138.88 89.6 138.88 89.44 139.04 89.44C141.44 88 143.84 86.56 146.4 85.12C146.4 85.28 146.4 85.28 146.4 85.28C150.56 89.28 152 96.16 149.92 102.72C148.32 108 144.96 112.8 139.2 118.24C136.16 120.96 132.32 124.16 127.68 124.32C122.4 124.64 117.76 120.64 115.52 116.64C113.44 112.64 112.48 107.84 112.8 101.44C113.12 91.36 115.68 82.72 120.32 76C121.44 77.28 123.2 78.08 124.8 78.08C125.6 78.08 126.4 77.92 127.04 77.6C127.36 77.44 127.36 77.12 127.36 76.8C127.2 76.48 126.88 76.48 126.56 76.48C124.8 77.44 122.4 76.8 120.96 75.2C121.12 74.88 120.96 74.56 120.8 74.4C120.64 74.24 120.48 74.24 120.32 74.24C119.36 72.64 119.04 70.4 119.52 68C120 65.28 121.44 62.88 123.52 60.96C125.44 64.32 128.16 66.88 131.2 68.16C131.52 68.32 131.84 68.16 132 67.84C132.16 67.52 132 67.2 131.68 67.2C128.64 65.92 126.08 63.52 124.32 60.16C123.04 57.28 122.24 53.92 122.08 49.92C121.6 36.32 128.8 22.88 140.32 15.84C144 13.6 147.52 12.32 150.72 12C154.72 11.52 158.56 12.48 161.28 14.56C165.12 17.44 167.2 22.72 166.88 28.64C166.72 33.92 164.8 39.04 162.88 44L153.76 68.32C153.6 68.64 153.76 68.96 154.08 69.12C154.08 69.12 154.08 69.12 154.24 69.12C154.4 69.12 154.72 68.96 154.72 68.8L157.76 60.64H157.92C158.08 60.64 158.24 60.64 158.24 60.48C161.44 57.12 165.76 54.56 171.2 52.8C176.16 51.2 181.28 50.56 186.24 49.92C186.56 49.76 186.72 49.6 186.72 49.28ZM254.659 91.84C254.819 91.52 254.819 91.2 254.659 91.2C250.659 88.32 246.019 86.4 241.219 85.76C243.299 82.72 245.859 79.84 248.579 77.28C248.739 77.12 248.739 76.8 248.579 76.64C248.419 76.32 248.099 76.32 247.939 76.64C244.899 79.2 242.339 82.24 240.099 85.6C236.739 85.28 233.379 85.28 230.179 86.08C229.859 86.08 229.699 86.4 229.859 86.56C229.859 86.88 230.179 87.04 230.339 87.04C233.379 86.4 236.419 86.24 239.459 86.56C236.419 91.36 234.179 96.64 232.899 102.24C232.739 102.56 232.899 102.72 233.219 102.88C233.539 102.88 233.699 102.72 233.859 102.56C235.139 96.8 237.379 91.52 240.579 86.72C245.379 87.36 250.019 89.12 254.339 92C254.499 92 254.659 92 254.659 91.84ZM295.299 117.76C291.779 123.2 288.099 127.84 281.059 127.84C276.259 127.84 271.459 125.28 268.579 121.92C264.739 117.12 262.979 110.4 263.619 102.72C266.019 98.4 267.459 93.44 268.099 88.48C268.099 88.32 267.939 88 267.619 88C267.459 88 267.139 88.16 267.139 88.48C264.899 105.76 250.499 122.72 232.259 123.04C225.059 123.04 218.179 120.32 213.539 115.36C209.699 111.2 207.619 104.8 207.779 97.92C208.099 79.2 224.259 64.64 242.659 64.64C248.899 64.64 255.139 66.24 260.259 69.6C260.419 69.76 260.739 69.76 260.899 69.44C261.059 69.28 261.059 68.96 260.739 68.8C255.299 65.28 249.059 63.52 242.499 63.52C239.139 63.52 235.779 64 232.579 64.96C241.059 59.2 246.819 49.28 247.779 37.76C247.779 37.44 247.459 37.12 247.299 37.12C246.979 37.12 246.819 37.28 246.659 37.6C245.539 52.16 236.739 64 224.099 67.84C221.699 68.64 218.659 69.12 215.779 69.12C210.979 69.12 206.019 67.52 203.779 62.88C202.019 59.52 202.339 55.2 204.579 49.6C212.259 30.56 232.419 12 253.859 12C261.859 12 269.379 14.4 275.299 19.04C283.939 26.08 287.779 38.4 284.099 48C283.779 49.12 283.139 51.04 283.139 51.04C279.299 60.8 275.619 68.48 266.819 75.36C266.659 75.52 266.659 75.84 266.819 76C266.979 76.16 266.979 76.16 267.139 76.16C272.259 72.48 276.099 67.84 278.979 62.72C280.419 63.52 281.539 64.96 282.179 67.04C284.099 72.16 284.579 77.76 283.939 83.36C283.139 85.76 282.659 88.32 282.339 90.56C282.179 90.72 282.339 91.04 282.659 91.04C283.939 91.04 284.899 84.48 284.899 83.52C287.139 76.8 292.899 67.2 301.219 67.2C305.859 67.2 307.939 72.48 308.739 76.32C310.339 83.68 309.219 96.96 295.299 117.76ZM380.105 16.8C370.505 23.68 362.985 32.64 357.865 43.04C354.345 38.4 353.545 31.84 355.785 25.6C358.025 19.84 362.825 14.72 369.065 11.84C374.665 9.44 381.225 8.47999 388.425 9.11999C393.385 9.59999 397.385 10.72 400.585 12.64C404.585 14.88 407.465 18.4 408.585 22.08C410.025 26.88 408.905 32.48 405.385 37.28C402.665 41.12 398.665 44.16 392.745 47.52C390.985 48.48 389.225 49.44 387.465 50.4C384.265 52 381.225 53.6 378.185 55.52C378.025 55.68 377.865 56 378.025 56.16C378.185 56.32 378.345 56.48 378.505 56.48L378.665 56.32C381.225 54.72 383.785 53.28 386.345 52C383.145 58.24 380.905 65.12 383.625 79.2C382.345 78.08 381.065 77.12 379.945 76.32C378.825 75.36 377.705 74.56 376.745 73.76C376.585 73.44 376.265 73.44 376.105 73.76C375.945 73.92 375.945 74.24 376.105 74.4C377.065 75.36 378.185 76.16 379.305 76.96C382.985 79.68 386.985 82.88 389.705 92.32C390.825 96.32 391.145 99.36 390.665 102.08C389.865 105.92 387.465 109.44 383.945 112.32C380.425 115.04 376.265 116.8 372.745 118.08C363.465 120.48 352.745 117.28 344.585 109.92C337.865 103.68 333.065 94.88 330.025 83.52C326.985 72.32 326.505 61.12 328.585 51.04C328.745 50.88 328.585 50.56 328.265 50.56C327.945 50.4 327.785 50.56 327.625 50.88C326.825 55.2 326.345 59.84 326.345 64.64C324.905 73.12 323.305 80.16 321.065 88.32C313.385 89.76 306.185 93.44 300.905 99.04C300.745 99.2 300.745 99.52 300.905 99.84C301.065 100 301.385 100 301.545 99.68C306.825 94.24 313.705 90.56 321.225 89.28C321.225 89.28 321.385 89.28 321.545 89.28C323.465 88.96 325.865 88.8 327.785 89.92C329.385 90.88 330.505 92.64 330.985 94.88C331.305 96.64 331.145 98.56 330.505 101.12C328.265 109.92 322.185 117.44 314.025 121.44C305.865 125.44 295.945 125.44 287.785 121.76C284.425 120.32 280.265 117.6 278.185 113.12C276.745 109.92 276.745 105.76 278.185 101.76C279.305 98.56 281.225 95.36 284.425 91.68C290.185 84.96 297.705 79.36 306.025 75.68C306.185 75.68 306.345 75.36 306.185 75.04C306.185 74.88 305.865 74.72 305.545 74.88C299.305 77.6 293.385 81.6 288.265 86.24C289.385 74.56 291.305 62.72 294.025 51.2C295.145 51.36 296.265 51.36 297.385 51.36C300.425 51.36 303.785 51.04 307.625 50.08C307.785 49.92 307.945 49.76 307.945 49.44C307.785 49.28 307.625 49.12 307.305 49.12C299.625 51.04 293.385 50.88 288.425 48.8C283.145 46.4 278.345 40 280.105 33.76C281.065 30.08 283.945 27.36 286.345 25.44C297.705 15.84 313.225 10.88 328.585 11.68C334.825 12.16 339.305 13.44 342.665 15.84C346.985 18.88 349.065 24.16 347.785 28.48C346.345 33.44 343.305 37.92 339.305 40.96C338.985 41.12 338.985 41.44 339.145 41.76C339.305 41.92 339.625 41.92 339.785 41.76C341.705 40.32 343.465 38.56 344.905 36.48C348.105 55.36 351.945 74.4 356.585 92.96C356.745 93.28 356.905 93.44 357.065 93.44H357.225C357.545 93.28 357.705 93.12 357.545 92.8C355.465 84.64 353.545 76.32 351.785 68V67.84C353.705 47.68 364.265 29.44 380.745 17.6C380.905 17.44 380.905 17.12 380.745 16.96C380.745 16.8 380.425 16.64 380.105 16.8ZM429.583 72.8C429.903 72.8 430.062 72.64 430.062 72.48C430.543 71.36 431.023 70.24 431.343 68.96C439.023 57.12 447.503 45.76 456.783 35.2C461.583 29.6 467.343 23.36 474.703 19.52C478.863 17.28 482.383 16.8 485.263 17.92C487.343 18.88 489.263 20.96 490.543 24C491.983 27.36 492.303 31.36 491.503 35.04C490.383 40 487.183 44.32 483.983 48.16C475.023 59.2 464.463 68.8 452.783 76.8C452.623 76.96 452.463 77.28 452.623 77.44C452.783 77.6 452.943 77.6 453.103 77.6H453.263C459.503 73.28 465.583 68.64 471.023 63.36C474.703 66.08 477.423 70.72 477.903 75.84C478.543 80.32 477.743 84.96 475.663 90.4C465.583 92.16 456.143 97.44 449.423 105.28C449.263 105.6 449.423 105.76 449.583 105.92C449.743 106.24 450.063 106.08 450.223 105.92C457.743 97.12 468.623 91.52 480.303 90.72C482.223 90.72 484.623 90.72 486.223 92.16C488.303 94.08 487.663 97.6 487.023 99.52C485.103 106.24 480.303 112.32 473.903 116.16C467.983 119.84 460.783 121.76 452.943 121.76C448.943 121.76 443.663 120.96 441.263 116.96C439.983 114.72 439.823 111.52 440.783 107.52C443.343 97.76 449.263 89.28 457.263 83.52L457.423 83.36C459.343 82.08 461.423 80.8 463.663 79.68C463.823 79.52 463.983 79.36 463.823 79.04C463.663 78.88 463.503 78.72 463.183 78.88C460.943 80 458.863 81.28 456.783 82.72C448.623 86.72 437.583 85.28 430.703 79.36C430.863 78.24 430.863 76.96 430.703 75.84C430.703 75.52 430.383 75.36 430.223 75.36C429.903 75.52 429.743 75.68 429.743 76C429.903 77.12 429.903 78.24 429.743 79.36V79.52C429.423 81.76 428.623 83.84 427.343 85.76C426.223 85.28 425.103 84.96 423.823 84.64C418.703 83.68 412.943 84.16 406.383 86.4C406.223 86.56 406.063 86.72 406.063 87.04C406.223 87.2 406.383 87.36 406.703 87.36C413.103 85.12 418.703 84.64 423.663 85.6C424.943 85.92 426.223 86.24 427.343 86.72H427.503C431.663 88.64 435.023 91.84 436.463 95.68C438.223 100.16 437.263 106.08 434.063 110.72C431.343 114.72 427.183 117.92 421.583 120.48C415.823 123.2 410.223 124.32 404.943 124.16C398.863 123.84 393.423 121.76 389.422 118.08C385.262 113.92 383.022 108.16 383.822 102.72C385.102 96.48 388.302 90.88 393.103 87.04C392.943 90.56 393.263 94.08 393.743 97.6C393.743 97.76 394.063 97.92 394.223 97.92C394.543 97.92 394.703 97.76 394.703 97.44C391.343 76.8 399.503 54.72 415.503 41.12C415.663 40.96 415.663 40.64 415.503 40.48C415.343 40.16 415.023 40.16 414.863 40.32C411.503 43.2 408.463 46.56 405.743 50.08C402.063 46.88 400.143 41.44 400.943 36C401.423 30.88 404.143 25.92 408.463 21.92C412.143 18.56 416.783 15.84 422.703 13.6C429.263 11.2 434.223 10.72 438.383 12.32C443.343 14.24 447.183 19.68 447.823 25.76C448.463 32.48 445.743 38.4 443.343 42.24C440.303 47.2 436.303 51.36 432.623 55.2C432.463 53.28 431.983 51.52 431.503 49.76C431.503 49.6 431.182 49.44 431.023 49.44C430.703 49.44 430.543 49.76 430.703 50.08C432.783 57.28 432.143 65.12 429.263 72.16C429.103 72.32 429.263 72.64 429.423 72.8C429.583 72.8 429.583 72.8 429.583 72.8ZM606.363 12.8C608.283 13.6 609.883 15.52 610.683 17.92C611.643 20.32 611.643 23.04 611.643 25.12C611.483 40.16 604.603 55.2 592.603 66.56C592.283 64.96 591.643 63.52 591.003 62.08C590.843 61.76 590.523 61.76 590.203 61.92C589.883 62.08 589.723 62.4 589.883 62.72C590.683 64.16 591.323 65.92 591.483 67.84C592.283 72.96 591.003 78.88 587.963 84C584.923 88.96 580.763 93.12 576.923 96.32C576.603 94.72 576.123 93.12 575.483 91.52C575.323 91.2 575.003 91.04 574.683 91.2C574.363 91.36 574.203 91.68 574.363 92C575.003 93.76 575.483 95.68 575.963 97.6C578.363 110.08 574.843 124 566.363 134.88C562.523 139.68 557.563 144.48 550.843 144.48C541.883 144.48 538.683 136.32 538.203 128.48C537.083 114.56 541.243 100.32 549.563 88.96C552.123 90.4 555.003 91.36 558.203 91.84H558.363C558.683 91.84 558.843 91.68 558.843 91.36C559.003 91.04 558.683 90.72 558.363 90.56C555.163 90.24 552.123 89.28 549.563 87.68C544.923 85.12 541.723 79.84 541.723 74.56C541.723 72.8 542.203 71.2 542.843 69.76C543.003 69.44 542.843 69.12 542.523 68.96C542.203 68.8 541.883 68.96 541.723 69.28C541.083 70.56 540.763 72 540.603 73.6C534.523 71.36 528.923 66.08 528.283 59.36C528.123 58.56 528.283 57.6 528.443 56.8C528.923 53.44 530.843 50.72 533.403 49.28C533.723 49.12 533.883 48.8 533.723 48.48C533.563 48.16 533.243 48 532.923 48.16C530.203 49.6 528.283 52.32 527.323 55.52C520.602 48.8 517.562 38.56 519.962 29.44C522.523 19.36 531.483 11.2 541.723 9.59999C542.682 9.28 543.803 9.28 545.082 9.28C554.683 9.28 558.043 16.48 558.683 25.28C559.163 33.28 557.723 41.6 554.203 48.96C553.243 51.04 552.283 52.96 551.003 54.88C550.843 55.04 550.843 55.52 551.163 55.68C551.323 55.68 551.323 55.84 551.483 55.84C551.643 55.84 551.803 55.68 551.963 55.52C553.083 53.92 554.043 52.16 554.843 50.56C557.243 54.56 558.523 59.2 558.363 64C558.363 67.2 557.723 70.24 556.283 73.12C556.283 73.44 556.283 73.76 556.603 73.92C556.763 73.92 556.763 74.08 556.923 74.08C557.083 74.08 557.403 73.92 557.403 73.6C558.683 70.88 559.483 67.84 559.643 64.64C562.363 64.64 565.083 65.12 567.483 66.24C568.283 66.56 569.243 67.04 570.043 67.52C572.603 69.28 574.843 71.52 576.443 74.24C576.603 74.4 576.763 74.4 576.923 74.4C577.083 74.4 577.083 74.4 577.243 74.4C577.563 74.24 577.563 73.92 577.403 73.6C575.803 70.88 573.723 68.48 571.003 66.72C572.123 53.44 576.443 40.32 583.163 28.8C586.843 22.56 594.683 12 603.163 12C604.123 12 605.243 12.32 606.363 12.8ZM655.79 106.72C657.07 107.04 658.35 107.2 659.63 107.2C667.95 107.2 676.27 102.72 679.47 100.64C678.19 104.64 676.27 108.32 673.55 111.52C668.43 117.76 660.27 122.24 651.63 123.84C634.83 126.72 616.75 118.08 608.59 103.2C602.35 92 602.03 77.44 607.63 65.44V65.28C609.23 61.76 613.71 55.04 616.27 52.32C616.43 52 616.43 51.68 616.11 51.52C615.95 51.36 615.63 51.36 615.47 51.52C612.91 54.24 608.91 60.32 606.99 64.16C602.99 58.4 602.19 49.92 604.91 41.28C608.27 29.92 616.59 20.16 627.15 15.2C632.43 12.8 638.19 11.52 643.95 11.52C649.87 11.52 655.95 12.96 661.23 15.68C670.67 20.48 678.03 29.92 680.11 40.48C680.75 46.24 679.31 52 675.79 57.92C675.79 58.24 675.79 58.56 676.11 58.72H676.27C676.43 58.72 676.59 58.72 676.75 58.56C680.27 52.64 681.71 47.04 681.23 41.28C684.27 42.88 686.83 46.08 688.43 49.76C690.19 54.56 690.51 59.84 690.51 64.96C690.51 71.52 690.35 79.04 688.11 86.08C686.51 91.36 683.47 96 679.95 99.04C678.67 100.16 666.67 107.68 656.11 105.76C655.79 105.76 655.47 105.92 655.47 106.24C655.47 106.4 655.63 106.72 655.79 106.72ZM645.71 61.6C649.71 64.8 653.39 68.32 656.59 72.32C656.75 72.48 656.91 72.48 657.07 72.48C657.07 72.48 657.23 72.48 657.39 72.48C657.55 72.32 657.55 72 657.39 71.68C654.19 67.68 650.35 64 646.35 60.8C646.19 60.8 646.19 60.64 646.19 60.64C649.55 56.16 653.55 52 658.03 48.48C658.19 48.32 658.19 48 658.03 47.84C657.87 47.52 657.55 47.52 657.39 47.68C652.75 51.36 648.75 55.52 645.23 60C642.19 57.76 637.87 55.2 633.07 55.04C632.75 55.04 632.59 55.2 632.59 55.52C632.43 55.84 632.75 56 633.07 56C637.55 56.16 641.71 58.72 644.59 60.8C641.55 65.12 638.99 69.6 636.91 74.56C636.75 74.72 636.91 75.04 637.07 75.2C637.23 75.2 637.23 75.2 637.23 75.2C637.55 75.2 637.71 75.04 637.71 74.88C639.79 70.08 642.51 65.6 645.55 61.44C645.55 61.6 645.55 61.6 645.71 61.6ZM759.505 83.68C759.665 83.52 759.825 83.52 759.825 83.36C760.945 81.6 762.065 79.84 763.025 78.08C763.345 81.28 763.025 84.64 762.705 87.52C761.905 93.44 761.105 100.16 757.905 105.76C751.025 116.96 729.745 123.84 716.945 123.84C702.545 123.84 691.665 115.36 688.785 100.96C687.345 94.56 687.825 87.2 690.225 80C691.345 82.08 693.585 85.76 695.985 88C696.145 88 696.305 88.16 696.465 88C696.465 88 696.625 88 696.785 87.84C696.945 87.68 696.945 87.36 696.625 87.2C693.905 84.64 691.345 80 690.545 78.4C686.545 69.92 684.625 60.48 685.105 51.04C685.745 39.68 689.745 28.32 696.785 19.2C700.145 14.88 703.505 12.32 707.025 11.68C707.505 11.52 708.145 11.52 708.785 11.52C718.065 11.52 721.265 22.24 721.265 29.76C721.425 37.76 719.825 45.76 716.465 53.12C714.865 50.08 710.385 41.6 706.065 40C705.905 39.84 705.585 40 705.425 40.32C705.265 40.64 705.425 40.96 705.745 40.96C709.745 42.56 714.865 52 715.985 54.56C720.305 64.16 721.265 75.2 718.705 85.6C717.265 87.04 714.865 90.24 713.425 92.64C713.265 92.96 713.265 93.28 713.585 93.44C713.745 93.44 713.745 93.44 713.905 93.44C714.065 93.44 714.225 93.28 714.225 93.28C715.825 90.72 718.225 87.52 719.505 86.4V86.24C723.505 82.24 729.105 79.2 734.865 79.2C736.145 79.2 737.265 79.2 738.385 79.52H738.545C739.985 79.84 744.945 81.44 747.505 83.68C747.665 83.84 747.825 83.84 747.985 83.84C748.145 83.84 748.145 83.68 748.305 83.68C748.465 83.36 748.465 83.04 748.145 82.88C745.425 80.48 740.625 78.88 738.865 78.56C734.865 67.36 733.265 55.68 734.545 44.8C735.825 31.68 741.105 19.36 749.425 10.08C753.905 4.96 759.665 0.639996 766.705 0.639996C773.745 0.639996 778.705 5.91999 780.145 12.64C781.265 17.12 780.945 21.92 780.305 25.92C778.225 42.56 772.305 59.52 762.865 76.32C761.585 78.4 760.305 80.48 759.025 82.88C758.865 83.04 758.865 83.36 759.185 83.52C759.185 83.68 759.345 83.68 759.505 83.68Z" fill="white"/>
</svg>
