<?xml version="1.0" encoding="utf-8"?>
<!-- Generator: Adobe Adobe Illustrator 24.2.0, SVG Export Plug-In . SVG Version: 6.00 Build 0)  -->
<svg version="1.1" xmlns="http://www.w3.org/2000/svg" xmlns:xlink="http://www.w3.org/1999/xlink" x="0px" y="0px" width="690px"
	 height="135px" viewBox="0 0 690 135" style="enable-background:new 0 0 690 135;" xml:space="preserve">
<style type="text/css">
	.st0{fill:url(#SVGID_1_);}
	.st1{fill:url(#SVGID_2_);}
	.st2{fill:url(#SVGID_3_);}
	.st3{fill:url(#SVGID_4_);}
	.st4{fill:url(#SVGID_5_);}
</style>
<g id="Layer_1">
</g>
<g id="Layer_2">
	<g>
		<linearGradient id="SVGID_1_" gradientUnits="userSpaceOnUse" x1="7.764" y1="49.7157" x2="677.764" y2="49.7157">
			<stop  offset="0" style="stop-color:#BEA0E8"/>
			<stop  offset="1" style="stop-color:#FFFFFF"/>
		</linearGradient>
		<path class="st0" d="M671.67,45.84c-19.09-2.35-38.82-2.89-58.23-1.55c-10.71,0.73-21.41,1.83-31.63,3.77
			c-16.71,3.62-32.75,8.13-48.85,12.5C512.9,66.19,492.95,72.98,475.9,75c-9.02,1.15-19.34,0.63-20.91-2.4
			c-0.54-0.66,0.29-2.45,0.49-2.91c0.36-0.52,0.53-0.71,0.79-0.96c0.1-0.07,0.21-0.15,0.33-0.22c0.1-0.06,0.29-0.18,0.5-0.31
			c-0.04,0.02-0.09,0.04-0.13,0.06c0.04-0.03,0.06-0.04,0.1-0.07c0.1-0.05,0.21-0.11,0.32-0.18c0.25-0.16,0.5-0.31,0.65-0.39
			c-0.01,0.02-0.06,0.06-0.1,0.09c0.82-0.45,1.8-1,2.47-1.37c0.72-0.36,1.73-0.86,2.31-1.15c8.03-3.64,16.21-6.47,27.02-10.03
			c10.25-3.56,20.54-7.18,29.48-11.72c9.26-5.12,30.26-15.67,13.17-21.87c-17.92-4.86-38.4-5.47-58.03-5.31
			c-10.49,0.02-21.01,0.31-31.31,1.47c-16.3,2.09-32.76,4.12-48.37,7.51c-44.29,10.65-82.2,27.78-117.62,45.7
			c-0.6,0.3-1.85,0.9-2.61,1.27c-1.54,0.71-1.07,0.47-4.56,1.79c-0.12,0.04-0.19,0.07-0.27,0.09c-0.81,0.24-1.65,0.46-2.5,0.65
			c-6.72,1.02-12.03,0.56-13.37-4.16c-0.72-3,1.16-8.22,5.12-11c2.44-1.87,2.07-1.6,5-3.46c0.03-0.02,0.04-0.03,0.07-0.04
			c0.1-0.06,0.17-0.09,0.25-0.14c1.06-0.45,4.42-1.93,5.37-2.33c13.82-5.68,26.99-11.92,37.54-19.51
			c7.84-5.82,20.57-15.09,8.57-21.67c-7.54-2.9-17.58-2.85-26.41-2.68c-14.68,0.43-28.62,3.06-42.54,5.47
			c-25.61,4.52-47.78,13.12-69.27,21.82c-12.87,4.55-31.55,10.06-46.91,12.53c-10.15,1.83-23.62,2.8-26.87,0.34
			c-0.12-0.26-0.09-0.57-0.01-0.84c0.14-0.14,0.22-0.27,0.22-0.33c0.01,0,0.01-0.01,0.02-0.01c0,0,0,0,0,0
			c0.96-0.49,2.35-1.13,5.07-2.27c-0.11,0.04-0.22,0.08-0.3,0.1c0.48-0.2,0.96-0.39,1.44-0.58c-0.05,0.02-0.09,0.04-0.14,0.06
			c0.21-0.09,0.43-0.18,0.66-0.27c15.6-6.28,32.42-11.64,45.18-19.83c5.05-3.45,12.54-7.39,12.18-12.16
			c-0.26-3.74-7.89-4.26-13.22-4.25c-6.86,0.01-13.71,0.44-20.45,1.1c-12.17,0.96-23.77,3.26-35,5.97
			c-15.02,4-30.56,7.51-44.73,12.41C37.96,35.22,22.57,42.46,7.76,49.92c9.03-4.24,18.2-7.88,26.49-11.16
			c10.55-4.49,22.49-7.69,35.01-10.11c18.47-4.06,34.48-7.56,56.08-7.59c9.27-0.09,22.14-0.1,20.15,5.28
			c-2.53,0.94-5.14,1.81-7.72,2.7c-13.82,5.11-27.45,10.43-39.17,17c-5.16,3.07-27.91,15.6-18.57,18.82
			c20,4.53,64.96-9.35,82.47-15.61c10.13-3.89,19.96-8.02,30.41-11.65c3.26-1,6.51-2,9.77-3c6.16-1.75,12.5-3.3,19.01-4.61
			c13.92-2.51,27.92-5.15,42.61-5.76c10.1-0.25,19.94-0.64,27.04,2.96c6.07,4.37,3.24,7.59-0.97,11.24
			c-0.02,0.02-0.04,0.03-0.06,0.05c-0.34,0.24-0.69,0.48-1.03,0.72c-1.12,0.51-2.7,1.21-3.36,1.49
			c-21.4,8.77-41.81,19.13-54.32,32.35c-3.71,4.61-6.09,10.52-0.97,15.06c4.17,2.08,10.84,1.67,15.71,0.6
			c15.29-3.68,27.11-10.59,39.5-16.57c9.69-4.85,20.79-9.91,37.85-17.03c8.64-3.39,17.61-6.48,26.79-9.39
			c1.56-0.5-2.28,0.73-1.78,0.59c9.44-2.84,18.81-5.81,28.9-7.9c9.31-1.82,35.88-5.99,52.71-7.16c22.05-1.02,46.77-1.1,64.86,1.94
			c7.83,1.3,17,3.32,17.82,6.89c-6.52,2.36-13.23,4.57-19.88,6.82c-11.43,4.04-22.31,8.58-32.25,13.7
			c-8.77,4.84-39.58,20.18-30,27.38c17.76,6.87,54.39-6.43,71.07-11.29c18.22-5.84,36.66-11.47,55.35-16.82
			c12.57-3.92,26.27-6.48,40.19-8.47c21.05-3.07,42.73-4.84,64.52-4.87c5.26-0.06,10.51,0.04,15.77,0.05
			C675.73,46.31,673.7,46.08,671.67,45.84z"/>
		<linearGradient id="SVGID_2_" gradientUnits="userSpaceOnUse" x1="457.0858" y1="67.9637" x2="457.9315" y2="67.9637">
			<stop  offset="0" style="stop-color:#E1CCFF"/>
			<stop  offset="1" style="stop-color:#E4CCFF"/>
		</linearGradient>
		<path class="st1" d="M457.09,68.21c0.32-0.16,0.68-0.36,0.85-0.49c-0.2,0.11-0.38,0.21-0.55,0.3
			C457.28,68.09,457.18,68.15,457.09,68.21z"/>
		<linearGradient id="SVGID_3_" gradientUnits="userSpaceOnUse" x1="216.8369" y1="244.4758" x2="232.3389" y2="273.0948">
			<stop  offset="0" style="stop-color:#E1CCFF"/>
			<stop  offset="0.5728" style="stop-color:#E3CCFE"/>
			<stop  offset="0.7791" style="stop-color:#EACCF9"/>
			<stop  offset="0.9257" style="stop-color:#F5CCF1"/>
			<stop  offset="1" style="stop-color:#FFCCEA"/>
		</linearGradient>
		<path class="st2" d="M109.97,46.06c-0.35,0.15-0.69,0.28-1,0.42C109.26,46.37,109.62,46.21,109.97,46.06z"/>
	</g>
	<g>
		<linearGradient id="SVGID_4_" gradientUnits="userSpaceOnUse" x1="382.713" y1="122.5507" x2="384.1638" y2="122.5507">
			<stop  offset="0" style="stop-color:#E1CCFF"/>
			<stop  offset="1" style="stop-color:#EBCCFF"/>
		</linearGradient>
		<path class="st3" d="M384.16,122.41c-0.19,0.04-0.4,0.08-0.6,0.12c-0.28,0.06-0.57,0.12-0.85,0.17
			C383.2,122.6,383.68,122.5,384.16,122.41z"/>
		<linearGradient id="SVGID_5_" gradientUnits="userSpaceOnUse" x1="156.9525" y1="95.211" x2="522.9566" y2="95.211">
			<stop  offset="0" style="stop-color:#BEA3E3"/>
			<stop  offset="1" style="stop-color:#FCFCFC"/>
		</linearGradient>
		<path class="st4" d="M520.5,88.86c-13.32,0.25-25.86,2.88-37.99,5.73c-16.11,3.71-31.91,7.82-48.41,11
			c-8.87,1.9-18.92,3.68-30.97,5.66c-9.94,1.44-27.72,5.35-33.62,1.24c-0.29-0.28-0.49-0.58-0.65-0.89
			c-0.03-0.22-0.07-0.55-0.03-0.76c0.24-3.51,1.21-7.01,2.95-10.39c2.45-5.9,12.46-12.57,19.78-21.75
			c4.51-5.29,10.9-14.72-5.74-14.84c-10.73-0.25-20.46,2.46-29.82,5.03c-15.75,4.23-29.84,10.06-43.88,15.81
			c-1.09,0.45-2.19,0.89-3.28,1.34c-0.1,0.04-0.21,0.08-0.32,0.13c-22.57,9.09-33.53,13.17-56.55,18.92
			c-16.7,3.66-38.7,8.48-57.11,6.91c-14.02-1.9-14.55-10.78-8.33-16.88c2.14-2.01,9.29-6.66,13.59-10.26
			c2.81-2.45,11.97-11.46,3.7-12.79c-6.41-0.97-13.21,0.16-19.53,0.9c-9.2,1.34-18.34,2.83-27.32,4.57
			c8.87-0.77,34.15-4.22,40.79-0.88c4.19,2.39-5.11,10.36-7.72,12.17c-9.83,7.02-22.14,12.67-24.08,22.74
			c-0.42,3.18,0.17,6.82,4.61,9.11c2.91,1.83,7.3,2.26,11.43,2.62c16.25,1.34,32.26-1.82,47.45-4.67c15.07-2.84,29-7.2,42.46-11.85
			c12.05-4.38,23.6-9.16,35.2-13.9c0.36-0.14,0.82-0.32,1.32-0.52c14.88-5.83,17.59-7.06,33.72-11.29
			c7.95-2.05,7.11-2.05,16.57-2.74c15.41-1.02,13.03,5.76,8.96,10.37c-3.18,3.93-6.65,7.79-10.55,11.52
			c-2.09,1.92-4.23,3.83-5.79,5.91c-4.06,5.63-7.08,12.06-4.99,18.1c5.38,5.47,28.46,0.04,37.24-1.68
			c10.65-2.08,21.1-4.44,31.5-6.87c18.63-4.53,36.75-9.61,54.64-14.98c16.03-4.61,32.09-9.56,49.99-11.5
			c1.09-0.14,2.18-0.29,3.27-0.43C522.14,88.79,521.32,88.82,520.5,88.86z"/>
	</g>
</g>
</svg>
